<mxfile host="app.diagrams.net" modified="2024-04-11T07:07:35.535Z" agent="Mozilla/5.0 (Windows NT 10.0; Win64; x64) AppleWebKit/537.36 (KHTML, like Gecko) Chrome/123.0.0.0 Safari/537.36" etag="3oxddYRy5aa67B2_bq2o" version="24.2.3" type="device">
  <diagram name="Sivu-1" id="OQtC_-HwIyGsEaLEecIQ">
    <mxGraphModel dx="2049" dy="1114" grid="1" gridSize="10" guides="1" tooltips="1" connect="1" arrows="1" fold="1" page="1" pageScale="1" pageWidth="827" pageHeight="1169" math="0" shadow="0">
      <root>
        <mxCell id="0" />
        <mxCell id="1" style="" parent="0" />
        <mxCell id="A7Okcxwv-YpMzJRRFR9Q-1" value="" style="sketch=0;points=[[0,0,0],[0.25,0,0],[0.5,0,0],[0.75,0,0],[1,0,0],[0,1,0],[0.25,1,0],[0.5,1,0],[0.75,1,0],[1,1,0],[0,0.25,0],[0,0.5,0],[0,0.75,0],[1,0.25,0],[1,0.5,0],[1,0.75,0]];outlineConnect=0;fontColor=#232F3E;fillColor=#8C4FFF;strokeColor=#ffffff;dashed=0;verticalLabelPosition=bottom;verticalAlign=top;align=center;html=1;fontSize=12;fontStyle=0;aspect=fixed;shape=mxgraph.aws4.resourceIcon;resIcon=mxgraph.aws4.cloudfront;" parent="1" vertex="1">
          <mxGeometry x="280" y="160" width="78" height="78" as="geometry" />
        </mxCell>
        <mxCell id="A7Okcxwv-YpMzJRRFR9Q-2" value="" style="sketch=0;points=[[0,0,0],[0.25,0,0],[0.5,0,0],[0.75,0,0],[1,0,0],[0,1,0],[0.25,1,0],[0.5,1,0],[0.75,1,0],[1,1,0],[0,0.25,0],[0,0.5,0],[0,0.75,0],[1,0.25,0],[1,0.5,0],[1,0.75,0]];outlineConnect=0;fontColor=#232F3E;fillColor=#ED7100;strokeColor=#ffffff;dashed=0;verticalLabelPosition=bottom;verticalAlign=top;align=center;html=1;fontSize=12;fontStyle=0;aspect=fixed;shape=mxgraph.aws4.resourceIcon;resIcon=mxgraph.aws4.ec2;" parent="1" vertex="1">
          <mxGeometry x="520" y="160" width="78" height="78" as="geometry" />
        </mxCell>
        <mxCell id="A7Okcxwv-YpMzJRRFR9Q-3" value="" style="sketch=0;outlineConnect=0;fontColor=#232F3E;gradientColor=none;fillColor=#232F3D;strokeColor=none;dashed=0;verticalLabelPosition=bottom;verticalAlign=top;align=center;html=1;fontSize=12;fontStyle=0;aspect=fixed;pointerEvents=1;shape=mxgraph.aws4.user;" parent="1" vertex="1">
          <mxGeometry x="40" y="160" width="78" height="78" as="geometry" />
        </mxCell>
        <mxCell id="A7Okcxwv-YpMzJRRFR9Q-5" value="" style="sketch=0;points=[[0,0,0],[0.25,0,0],[0.5,0,0],[0.75,0,0],[1,0,0],[0,1,0],[0.25,1,0],[0.5,1,0],[0.75,1,0],[1,1,0],[0,0.25,0],[0,0.5,0],[0,0.75,0],[1,0.25,0],[1,0.5,0],[1,0.75,0]];outlineConnect=0;fontColor=#232F3E;fillColor=#8C4FFF;strokeColor=#ffffff;dashed=0;verticalLabelPosition=bottom;verticalAlign=top;align=center;html=1;fontSize=12;fontStyle=0;aspect=fixed;shape=mxgraph.aws4.resourceIcon;resIcon=mxgraph.aws4.elastic_load_balancing;" parent="1" vertex="1">
          <mxGeometry x="400" y="160" width="78" height="78" as="geometry" />
        </mxCell>
        <mxCell id="A7Okcxwv-YpMzJRRFR9Q-7" value="" style="edgeStyle=orthogonalEdgeStyle;html=1;endArrow=block;elbow=vertical;startArrow=block;startFill=1;endFill=1;strokeColor=#545B64;rounded=0;exitX=1;exitY=0.5;exitDx=0;exitDy=0;exitPerimeter=0;" parent="1" source="A7Okcxwv-YpMzJRRFR9Q-1" target="A7Okcxwv-YpMzJRRFR9Q-5" edge="1">
          <mxGeometry width="100" relative="1" as="geometry">
            <mxPoint x="360" y="400" as="sourcePoint" />
            <mxPoint x="460" y="400" as="targetPoint" />
          </mxGeometry>
        </mxCell>
        <mxCell id="A7Okcxwv-YpMzJRRFR9Q-8" value="" style="edgeStyle=orthogonalEdgeStyle;html=1;endArrow=block;elbow=vertical;startArrow=block;startFill=1;endFill=1;strokeColor=#545B64;rounded=0;" parent="1" source="A7Okcxwv-YpMzJRRFR9Q-5" target="A7Okcxwv-YpMzJRRFR9Q-2" edge="1">
          <mxGeometry width="100" relative="1" as="geometry">
            <mxPoint x="360" y="400" as="sourcePoint" />
            <mxPoint x="460" y="400" as="targetPoint" />
          </mxGeometry>
        </mxCell>
        <mxCell id="A7Okcxwv-YpMzJRRFR9Q-9" value="User" style="text;strokeColor=none;align=center;fillColor=none;html=1;verticalAlign=middle;whiteSpace=wrap;rounded=0;" parent="1" vertex="1">
          <mxGeometry x="49" y="238" width="60" height="30" as="geometry" />
        </mxCell>
        <mxCell id="A7Okcxwv-YpMzJRRFR9Q-10" value="" style="sketch=0;points=[[0,0,0],[0.25,0,0],[0.5,0,0],[0.75,0,0],[1,0,0],[0,1,0],[0.25,1,0],[0.5,1,0],[0.75,1,0],[1,1,0],[0,0.25,0],[0,0.5,0],[0,0.75,0],[1,0.25,0],[1,0.5,0],[1,0.75,0]];outlineConnect=0;fontColor=#232F3E;fillColor=#8C4FFF;strokeColor=#ffffff;dashed=0;verticalLabelPosition=bottom;verticalAlign=top;align=center;html=1;fontSize=12;fontStyle=0;aspect=fixed;shape=mxgraph.aws4.resourceIcon;resIcon=mxgraph.aws4.route_53;" parent="1" vertex="1">
          <mxGeometry x="160" y="160" width="78" height="78" as="geometry" />
        </mxCell>
        <mxCell id="A7Okcxwv-YpMzJRRFR9Q-11" value="Route 53" style="text;strokeColor=none;align=center;fillColor=none;html=1;verticalAlign=middle;whiteSpace=wrap;rounded=0;" parent="1" vertex="1">
          <mxGeometry x="169" y="238" width="60" height="30" as="geometry" />
        </mxCell>
        <mxCell id="A7Okcxwv-YpMzJRRFR9Q-12" value="CloudFront" style="text;strokeColor=none;align=center;fillColor=none;html=1;verticalAlign=middle;whiteSpace=wrap;rounded=0;" parent="1" vertex="1">
          <mxGeometry x="289" y="238" width="60" height="30" as="geometry" />
        </mxCell>
        <mxCell id="A7Okcxwv-YpMzJRRFR9Q-13" value="Load balancer" style="text;strokeColor=none;align=center;fillColor=none;html=1;verticalAlign=middle;whiteSpace=wrap;rounded=0;" parent="1" vertex="1">
          <mxGeometry x="400" y="238" width="80" height="30" as="geometry" />
        </mxCell>
        <mxCell id="A7Okcxwv-YpMzJRRFR9Q-14" value="EC2" style="text;strokeColor=none;align=center;fillColor=none;html=1;verticalAlign=middle;whiteSpace=wrap;rounded=0;" parent="1" vertex="1">
          <mxGeometry x="529" y="238" width="60" height="30" as="geometry" />
        </mxCell>
        <mxCell id="A7Okcxwv-YpMzJRRFR9Q-15" value="" style="edgeStyle=orthogonalEdgeStyle;html=1;endArrow=block;elbow=vertical;startArrow=block;startFill=1;endFill=1;strokeColor=#545B64;rounded=0;" parent="1" source="A7Okcxwv-YpMzJRRFR9Q-10" target="A7Okcxwv-YpMzJRRFR9Q-1" edge="1">
          <mxGeometry width="100" relative="1" as="geometry">
            <mxPoint x="360" y="400" as="sourcePoint" />
            <mxPoint x="460" y="400" as="targetPoint" />
          </mxGeometry>
        </mxCell>
        <mxCell id="A7Okcxwv-YpMzJRRFR9Q-16" value="" style="edgeStyle=orthogonalEdgeStyle;html=1;endArrow=block;elbow=vertical;startArrow=block;startFill=1;endFill=1;strokeColor=#545B64;rounded=0;" parent="1" source="A7Okcxwv-YpMzJRRFR9Q-3" target="A7Okcxwv-YpMzJRRFR9Q-10" edge="1">
          <mxGeometry width="100" relative="1" as="geometry">
            <mxPoint x="360" y="400" as="sourcePoint" />
            <mxPoint x="460" y="400" as="targetPoint" />
          </mxGeometry>
        </mxCell>
        <mxCell id="A7Okcxwv-YpMzJRRFR9Q-17" value="" style="sketch=0;outlineConnect=0;fontColor=#232F3E;gradientColor=none;fillColor=#C925D1;strokeColor=none;dashed=0;verticalLabelPosition=bottom;verticalAlign=top;align=center;html=1;fontSize=12;fontStyle=0;aspect=fixed;pointerEvents=1;shape=mxgraph.aws4.elasticache_for_redis;" parent="1" vertex="1">
          <mxGeometry x="322" y="430" width="78" height="69" as="geometry" />
        </mxCell>
        <mxCell id="A7Okcxwv-YpMzJRRFR9Q-18" value="" style="sketch=0;outlineConnect=0;fontColor=#232F3E;gradientColor=none;fillColor=#C925D1;strokeColor=none;dashed=0;verticalLabelPosition=bottom;verticalAlign=top;align=center;html=1;fontSize=12;fontStyle=0;aspect=fixed;pointerEvents=1;shape=mxgraph.aws4.rds_instance;" parent="1" vertex="1">
          <mxGeometry x="470" y="436" width="78" height="78" as="geometry" />
        </mxCell>
        <mxCell id="A7Okcxwv-YpMzJRRFR9Q-19" value="" style="sketch=0;points=[[0,0,0],[0.25,0,0],[0.5,0,0],[0.75,0,0],[1,0,0],[0,1,0],[0.25,1,0],[0.5,1,0],[0.75,1,0],[1,1,0],[0,0.25,0],[0,0.5,0],[0,0.75,0],[1,0.25,0],[1,0.5,0],[1,0.75,0]];outlineConnect=0;fontColor=#232F3E;fillColor=#ED7100;strokeColor=#ffffff;dashed=0;verticalLabelPosition=bottom;verticalAlign=top;align=center;html=1;fontSize=12;fontStyle=0;aspect=fixed;shape=mxgraph.aws4.resourceIcon;resIcon=mxgraph.aws4.ec2;" parent="1" vertex="1">
          <mxGeometry x="160" y="436" width="78" height="78" as="geometry" />
        </mxCell>
        <mxCell id="A7Okcxwv-YpMzJRRFR9Q-21" value="" style="edgeStyle=orthogonalEdgeStyle;html=1;endArrow=block;elbow=vertical;startArrow=none;endFill=1;strokeColor=#545B64;rounded=0;" parent="1" edge="1">
          <mxGeometry width="100" relative="1" as="geometry">
            <mxPoint x="323.87470657277004" y="449.99571428571426" as="sourcePoint" />
            <mxPoint x="238" y="449.99571428571426" as="targetPoint" />
            <Array as="points">
              <mxPoint x="260" y="449.51" />
              <mxPoint x="260" y="449.51" />
            </Array>
          </mxGeometry>
        </mxCell>
        <mxCell id="A7Okcxwv-YpMzJRRFR9Q-22" value="" style="edgeStyle=orthogonalEdgeStyle;html=1;endArrow=block;elbow=vertical;startArrow=block;startFill=1;endFill=1;strokeColor=#545B64;rounded=0;" parent="1" edge="1">
          <mxGeometry width="100" relative="1" as="geometry">
            <mxPoint x="240" y="480" as="sourcePoint" />
            <mxPoint x="470" y="480" as="targetPoint" />
          </mxGeometry>
        </mxCell>
        <mxCell id="A7Okcxwv-YpMzJRRFR9Q-23" value="Webserver" style="text;strokeColor=none;align=center;fillColor=none;html=1;verticalAlign=middle;whiteSpace=wrap;rounded=0;" parent="1" vertex="1">
          <mxGeometry x="169" y="514" width="60" height="30" as="geometry" />
        </mxCell>
        <mxCell id="A7Okcxwv-YpMzJRRFR9Q-24" value="Elasticache for Redis" style="text;strokeColor=none;align=center;fillColor=none;html=1;verticalAlign=middle;whiteSpace=wrap;rounded=0;" parent="1" vertex="1">
          <mxGeometry x="331" y="514" width="60" height="30" as="geometry" />
        </mxCell>
        <mxCell id="A7Okcxwv-YpMzJRRFR9Q-25" value="RDS" style="text;strokeColor=none;align=center;fillColor=none;html=1;verticalAlign=middle;whiteSpace=wrap;rounded=0;" parent="1" vertex="1">
          <mxGeometry x="478" y="514" width="60" height="30" as="geometry" />
        </mxCell>
        <mxCell id="ndUNQ0--EcQsI74L-iBK-1" value="" style="sketch=0;points=[[0,0,0],[0.25,0,0],[0.5,0,0],[0.75,0,0],[1,0,0],[0,1,0],[0.25,1,0],[0.5,1,0],[0.75,1,0],[1,1,0],[0,0.25,0],[0,0.5,0],[0,0.75,0],[1,0.25,0],[1,0.5,0],[1,0.75,0]];outlineConnect=0;fontColor=#232F3E;fillColor=#DD344C;strokeColor=#ffffff;dashed=0;verticalLabelPosition=bottom;verticalAlign=top;align=center;html=1;fontSize=12;fontStyle=0;aspect=fixed;shape=mxgraph.aws4.resourceIcon;resIcon=mxgraph.aws4.cognito;" vertex="1" parent="1">
          <mxGeometry x="238" y="1120" width="78" height="78" as="geometry" />
        </mxCell>
        <mxCell id="ndUNQ0--EcQsI74L-iBK-2" value="" style="edgeStyle=orthogonalEdgeStyle;html=1;endArrow=block;elbow=vertical;startArrow=block;startFill=1;endFill=1;strokeColor=#545B64;rounded=0;exitX=0.5;exitY=1;exitDx=0;exitDy=0;entryX=0;entryY=0.5;entryDx=0;entryDy=0;entryPerimeter=0;" edge="1" parent="1" source="A7Okcxwv-YpMzJRRFR9Q-52" target="ndUNQ0--EcQsI74L-iBK-1">
          <mxGeometry width="100" relative="1" as="geometry">
            <mxPoint x="140" y="1360" as="sourcePoint" />
            <mxPoint x="801" y="1300" as="targetPoint" />
          </mxGeometry>
        </mxCell>
        <mxCell id="ndUNQ0--EcQsI74L-iBK-5" value="" style="edgeStyle=orthogonalEdgeStyle;html=1;endArrow=block;elbow=vertical;startArrow=none;endFill=1;strokeColor=#545B64;rounded=0;entryX=0;entryY=0.5;entryDx=0;entryDy=0;entryPerimeter=0;" edge="1" parent="1" source="A7Okcxwv-YpMzJRRFR9Q-26" target="A7Okcxwv-YpMzJRRFR9Q-27">
          <mxGeometry width="100" relative="1" as="geometry">
            <mxPoint x="120" y="950" as="sourcePoint" />
            <mxPoint x="350" y="870" as="targetPoint" />
            <Array as="points">
              <mxPoint x="120" y="839" />
            </Array>
          </mxGeometry>
        </mxCell>
        <mxCell id="ndUNQ0--EcQsI74L-iBK-6" value="&lt;h2&gt;&lt;font style=&quot;font-size: 14px;&quot;&gt;CloudFront&lt;/font&gt;&lt;/h2&gt;" style="text;strokeColor=none;align=center;fillColor=none;html=1;verticalAlign=middle;whiteSpace=wrap;rounded=0;" vertex="1" parent="1">
          <mxGeometry x="244" y="1040" width="67" height="30" as="geometry" />
        </mxCell>
        <mxCell id="A7Okcxwv-YpMzJRRFR9Q-71" value="Alueet" style="locked=1;" parent="0" />
        <mxCell id="A7Okcxwv-YpMzJRRFR9Q-49" value="VPC" style="points=[[0,0],[0.25,0],[0.5,0],[0.75,0],[1,0],[1,0.25],[1,0.5],[1,0.75],[1,1],[0.75,1],[0.5,1],[0.25,1],[0,1],[0,0.75],[0,0.5],[0,0.25]];outlineConnect=0;gradientColor=none;html=1;whiteSpace=wrap;fontSize=12;fontStyle=0;container=1;pointerEvents=0;collapsible=0;recursiveResize=0;shape=mxgraph.aws4.group;grIcon=mxgraph.aws4.group_vpc2;strokeColor=#8C4FFF;fillColor=none;verticalAlign=top;align=left;spacingLeft=30;fontColor=#AAB7B8;dashed=0;" parent="A7Okcxwv-YpMzJRRFR9Q-71" vertex="1">
          <mxGeometry x="440" y="720" width="1200" height="560" as="geometry" />
        </mxCell>
        <mxCell id="A7Okcxwv-YpMzJRRFR9Q-50" value="Availability Zone" style="fillColor=none;strokeColor=#147EBA;dashed=1;verticalAlign=top;fontStyle=0;fontColor=#147EBA;whiteSpace=wrap;html=1;" parent="A7Okcxwv-YpMzJRRFR9Q-49" vertex="1">
          <mxGeometry x="80" y="10" width="1100" height="190" as="geometry" />
        </mxCell>
        <mxCell id="A7Okcxwv-YpMzJRRFR9Q-59" value="Availability Zone" style="fillColor=none;strokeColor=#147EBA;dashed=1;verticalAlign=top;fontStyle=0;fontColor=#147EBA;whiteSpace=wrap;html=1;" parent="A7Okcxwv-YpMzJRRFR9Q-49" vertex="1">
          <mxGeometry x="80" y="360" width="1100" height="190" as="geometry" />
        </mxCell>
        <mxCell id="A7Okcxwv-YpMzJRRFR9Q-67" value="" style="sketch=0;outlineConnect=0;fontColor=#232F3E;gradientColor=none;fillColor=#C925D1;strokeColor=none;dashed=0;verticalLabelPosition=bottom;verticalAlign=top;align=center;html=1;fontSize=12;fontStyle=0;aspect=fixed;pointerEvents=1;shape=mxgraph.aws4.elasticache_for_redis;" parent="A7Okcxwv-YpMzJRRFR9Q-49" vertex="1">
          <mxGeometry x="920" y="80" width="78" height="69" as="geometry" />
        </mxCell>
        <mxCell id="A7Okcxwv-YpMzJRRFR9Q-47" value="Region" style="points=[[0,0],[0.25,0],[0.5,0],[0.75,0],[1,0],[1,0.25],[1,0.5],[1,0.75],[1,1],[0.75,1],[0.5,1],[0.25,1],[0,1],[0,0.75],[0,0.5],[0,0.25]];outlineConnect=0;gradientColor=none;html=1;whiteSpace=wrap;fontSize=12;fontStyle=0;container=1;pointerEvents=0;collapsible=0;recursiveResize=0;shape=mxgraph.aws4.group;grIcon=mxgraph.aws4.group_region;strokeColor=#00A4A6;fillColor=none;verticalAlign=top;align=left;spacingLeft=30;fontColor=#147EBA;dashed=1;" parent="A7Okcxwv-YpMzJRRFR9Q-71" vertex="1">
          <mxGeometry x="340" y="700" width="1320" height="600" as="geometry" />
        </mxCell>
        <mxCell id="A7Okcxwv-YpMzJRRFR9Q-46" value="AWS Cloud" style="points=[[0,0],[0.25,0],[0.5,0],[0.75,0],[1,0],[1,0.25],[1,0.5],[1,0.75],[1,1],[0.75,1],[0.5,1],[0.25,1],[0,1],[0,0.75],[0,0.5],[0,0.25]];outlineConnect=0;gradientColor=none;html=1;whiteSpace=wrap;fontSize=12;fontStyle=0;container=1;pointerEvents=0;collapsible=0;recursiveResize=0;shape=mxgraph.aws4.group;grIcon=mxgraph.aws4.group_aws_cloud_alt;strokeColor=#232F3E;fillColor=none;verticalAlign=top;align=left;spacingLeft=30;fontColor=#232F3E;dashed=0;" parent="A7Okcxwv-YpMzJRRFR9Q-71" vertex="1">
          <mxGeometry x="200" y="680" width="1480" height="640" as="geometry" />
        </mxCell>
        <mxCell id="A7Okcxwv-YpMzJRRFR9Q-64" value="Private subnet" style="points=[[0,0],[0.25,0],[0.5,0],[0.75,0],[1,0],[1,0.25],[1,0.5],[1,0.75],[1,1],[0.75,1],[0.5,1],[0.25,1],[0,1],[0,0.75],[0,0.5],[0,0.25]];outlineConnect=0;gradientColor=none;html=1;whiteSpace=wrap;fontSize=12;fontStyle=0;container=1;pointerEvents=0;collapsible=0;recursiveResize=0;shape=mxgraph.aws4.group;grIcon=mxgraph.aws4.group_security_group;grStroke=0;strokeColor=#00A4A6;fillColor=#E6F6F7;verticalAlign=top;align=left;spacingLeft=30;fontColor=#147EBA;dashed=0;" parent="A7Okcxwv-YpMzJRRFR9Q-46" vertex="1">
          <mxGeometry x="839" y="69" width="240" height="160.5" as="geometry" />
        </mxCell>
        <mxCell id="A7Okcxwv-YpMzJRRFR9Q-65" value="Private subnet" style="points=[[0,0],[0.25,0],[0.5,0],[0.75,0],[1,0],[1,0.25],[1,0.5],[1,0.75],[1,1],[0.75,1],[0.5,1],[0.25,1],[0,1],[0,0.75],[0,0.5],[0,0.25]];outlineConnect=0;gradientColor=none;html=1;whiteSpace=wrap;fontSize=12;fontStyle=0;container=1;pointerEvents=0;collapsible=0;recursiveResize=0;shape=mxgraph.aws4.group;grIcon=mxgraph.aws4.group_security_group;grStroke=0;strokeColor=#00A4A6;fillColor=#E6F6F7;verticalAlign=top;align=left;spacingLeft=30;fontColor=#147EBA;dashed=0;" parent="A7Okcxwv-YpMzJRRFR9Q-46" vertex="1">
          <mxGeometry x="1120" y="69" width="290" height="160.5" as="geometry" />
        </mxCell>
        <mxCell id="A7Okcxwv-YpMzJRRFR9Q-62" value="Public subnet" style="points=[[0,0],[0.25,0],[0.5,0],[0.75,0],[1,0],[1,0.25],[1,0.5],[1,0.75],[1,1],[0.75,1],[0.5,1],[0.25,1],[0,1],[0,0.75],[0,0.5],[0,0.25]];outlineConnect=0;gradientColor=none;html=1;whiteSpace=wrap;fontSize=12;fontStyle=0;container=1;pointerEvents=0;collapsible=0;recursiveResize=0;shape=mxgraph.aws4.group;grIcon=mxgraph.aws4.group_security_group;grStroke=0;strokeColor=#7AA116;fillColor=#F2F6E8;verticalAlign=top;align=left;spacingLeft=30;fontColor=#248814;dashed=0;" parent="A7Okcxwv-YpMzJRRFR9Q-46" vertex="1">
          <mxGeometry x="330" y="69.5" width="240" height="160" as="geometry" />
        </mxCell>
        <mxCell id="A7Okcxwv-YpMzJRRFR9Q-63" value="Private subnet" style="points=[[0,0],[0.25,0],[0.5,0],[0.75,0],[1,0],[1,0.25],[1,0.5],[1,0.75],[1,1],[0.75,1],[0.5,1],[0.25,1],[0,1],[0,0.75],[0,0.5],[0,0.25]];outlineConnect=0;gradientColor=none;html=1;whiteSpace=wrap;fontSize=12;fontStyle=0;container=1;pointerEvents=0;collapsible=0;recursiveResize=0;shape=mxgraph.aws4.group;grIcon=mxgraph.aws4.group_security_group;grStroke=0;strokeColor=#00A4A6;fillColor=#E6F6F7;verticalAlign=top;align=left;spacingLeft=30;fontColor=#147EBA;dashed=0;" parent="A7Okcxwv-YpMzJRRFR9Q-46" vertex="1">
          <mxGeometry x="580" y="69.5" width="220" height="160.5" as="geometry" />
        </mxCell>
        <mxCell id="A7Okcxwv-YpMzJRRFR9Q-82" value="Private subnet" style="points=[[0,0],[0.25,0],[0.5,0],[0.75,0],[1,0],[1,0.25],[1,0.5],[1,0.75],[1,1],[0.75,1],[0.5,1],[0.25,1],[0,1],[0,0.75],[0,0.5],[0,0.25]];outlineConnect=0;gradientColor=none;html=1;whiteSpace=wrap;fontSize=12;fontStyle=0;container=1;pointerEvents=0;collapsible=0;recursiveResize=0;shape=mxgraph.aws4.group;grIcon=mxgraph.aws4.group_security_group;grStroke=0;strokeColor=#00A4A6;fillColor=#E6F6F7;verticalAlign=top;align=left;spacingLeft=30;fontColor=#147EBA;dashed=0;" parent="A7Okcxwv-YpMzJRRFR9Q-46" vertex="1">
          <mxGeometry x="839" y="420" width="240" height="160.5" as="geometry" />
        </mxCell>
        <mxCell id="A7Okcxwv-YpMzJRRFR9Q-83" value="Private subnet" style="points=[[0,0],[0.25,0],[0.5,0],[0.75,0],[1,0],[1,0.25],[1,0.5],[1,0.75],[1,1],[0.75,1],[0.5,1],[0.25,1],[0,1],[0,0.75],[0,0.5],[0,0.25]];outlineConnect=0;gradientColor=none;html=1;whiteSpace=wrap;fontSize=12;fontStyle=0;container=1;pointerEvents=0;collapsible=0;recursiveResize=0;shape=mxgraph.aws4.group;grIcon=mxgraph.aws4.group_security_group;grStroke=0;strokeColor=#00A4A6;fillColor=#E6F6F7;verticalAlign=top;align=left;spacingLeft=30;fontColor=#147EBA;dashed=0;" parent="A7Okcxwv-YpMzJRRFR9Q-46" vertex="1">
          <mxGeometry x="1120" y="420" width="290" height="160.5" as="geometry" />
        </mxCell>
        <mxCell id="A7Okcxwv-YpMzJRRFR9Q-84" value="Public subnet" style="points=[[0,0],[0.25,0],[0.5,0],[0.75,0],[1,0],[1,0.25],[1,0.5],[1,0.75],[1,1],[0.75,1],[0.5,1],[0.25,1],[0,1],[0,0.75],[0,0.5],[0,0.25]];outlineConnect=0;gradientColor=none;html=1;whiteSpace=wrap;fontSize=12;fontStyle=0;container=1;pointerEvents=0;collapsible=0;recursiveResize=0;shape=mxgraph.aws4.group;grIcon=mxgraph.aws4.group_security_group;grStroke=0;strokeColor=#7AA116;fillColor=#F2F6E8;verticalAlign=top;align=left;spacingLeft=30;fontColor=#248814;dashed=0;" parent="A7Okcxwv-YpMzJRRFR9Q-46" vertex="1">
          <mxGeometry x="330" y="420.5" width="240" height="160" as="geometry" />
        </mxCell>
        <mxCell id="A7Okcxwv-YpMzJRRFR9Q-85" value="Private subnet" style="points=[[0,0],[0.25,0],[0.5,0],[0.75,0],[1,0],[1,0.25],[1,0.5],[1,0.75],[1,1],[0.75,1],[0.5,1],[0.25,1],[0,1],[0,0.75],[0,0.5],[0,0.25]];outlineConnect=0;gradientColor=none;html=1;whiteSpace=wrap;fontSize=12;fontStyle=0;container=1;pointerEvents=0;collapsible=0;recursiveResize=0;shape=mxgraph.aws4.group;grIcon=mxgraph.aws4.group_security_group;grStroke=0;strokeColor=#00A4A6;fillColor=#E6F6F7;verticalAlign=top;align=left;spacingLeft=30;fontColor=#147EBA;dashed=0;" parent="A7Okcxwv-YpMzJRRFR9Q-46" vertex="1">
          <mxGeometry x="580" y="420.5" width="220" height="160.5" as="geometry" />
        </mxCell>
        <mxCell id="A7Okcxwv-YpMzJRRFR9Q-69" value="Symbolit" style="" parent="0" />
        <mxCell id="A7Okcxwv-YpMzJRRFR9Q-53" value="&lt;h2&gt;&lt;font style=&quot;font-size: 14px;&quot;&gt;Cognito&lt;/font&gt;&lt;/h2&gt;" style="text;strokeColor=none;align=center;fillColor=none;html=1;verticalAlign=middle;whiteSpace=wrap;rounded=0;" parent="A7Okcxwv-YpMzJRRFR9Q-69" vertex="1">
          <mxGeometry x="240" y="1190" width="67" height="30" as="geometry" />
        </mxCell>
        <mxCell id="A7Okcxwv-YpMzJRRFR9Q-27" value="" style="sketch=0;points=[[0,0,0],[0.25,0,0],[0.5,0,0],[0.75,0,0],[1,0,0],[0,1,0],[0.25,1,0],[0.5,1,0],[0.75,1,0],[1,1,0],[0,0.25,0],[0,0.5,0],[0,0.75,0],[1,0.25,0],[1,0.5,0],[1,0.75,0]];outlineConnect=0;fontColor=#232F3E;fillColor=#8C4FFF;strokeColor=#ffffff;dashed=0;verticalLabelPosition=bottom;verticalAlign=top;align=center;html=1;fontSize=12;fontStyle=0;aspect=fixed;shape=mxgraph.aws4.resourceIcon;resIcon=mxgraph.aws4.route_53;" parent="A7Okcxwv-YpMzJRRFR9Q-69" vertex="1">
          <mxGeometry x="238" y="800" width="78" height="78" as="geometry" />
        </mxCell>
        <mxCell id="A7Okcxwv-YpMzJRRFR9Q-54" value="&lt;h2&gt;&lt;font style=&quot;font-size: 14px;&quot;&gt;Route 53&lt;/font&gt;&lt;/h2&gt;" style="text;strokeColor=none;align=center;fillColor=none;html=1;verticalAlign=middle;whiteSpace=wrap;rounded=0;" parent="A7Okcxwv-YpMzJRRFR9Q-69" vertex="1">
          <mxGeometry x="245.5" y="878" width="63" height="30" as="geometry" />
        </mxCell>
        <mxCell id="A7Okcxwv-YpMzJRRFR9Q-28" value="" style="sketch=0;points=[[0,0,0],[0.25,0,0],[0.5,0,0],[0.75,0,0],[1,0,0],[0,1,0],[0.25,1,0],[0.5,1,0],[0.75,1,0],[1,1,0],[0,0.25,0],[0,0.5,0],[0,0.75,0],[1,0.25,0],[1,0.5,0],[1,0.75,0]];outlineConnect=0;fontColor=#232F3E;fillColor=#8C4FFF;strokeColor=#ffffff;dashed=0;verticalLabelPosition=bottom;verticalAlign=top;align=center;html=1;fontSize=12;fontStyle=0;aspect=fixed;shape=mxgraph.aws4.resourceIcon;resIcon=mxgraph.aws4.cloudfront;" parent="A7Okcxwv-YpMzJRRFR9Q-69" vertex="1">
          <mxGeometry x="238" y="960" width="78" height="78" as="geometry" />
        </mxCell>
        <mxCell id="A7Okcxwv-YpMzJRRFR9Q-26" value="" style="sketch=0;outlineConnect=0;fontColor=#232F3E;gradientColor=none;fillColor=#232F3D;strokeColor=none;dashed=0;verticalLabelPosition=bottom;verticalAlign=top;align=center;html=1;fontSize=12;fontStyle=0;aspect=fixed;pointerEvents=1;shape=mxgraph.aws4.user;" parent="A7Okcxwv-YpMzJRRFR9Q-69" vertex="1">
          <mxGeometry x="80" y="960" width="78" height="78" as="geometry" />
        </mxCell>
        <mxCell id="A7Okcxwv-YpMzJRRFR9Q-52" value="&lt;h2&gt;&lt;font style=&quot;font-size: 14px;&quot;&gt;User&lt;/font&gt;&lt;/h2&gt;" style="text;strokeColor=none;align=center;fillColor=none;html=1;verticalAlign=middle;whiteSpace=wrap;rounded=0;" parent="A7Okcxwv-YpMzJRRFR9Q-69" vertex="1">
          <mxGeometry x="89" y="1030" width="60" height="30" as="geometry" />
        </mxCell>
        <mxCell id="A7Okcxwv-YpMzJRRFR9Q-29" value="" style="sketch=0;outlineConnect=0;fontColor=#232F3E;gradientColor=none;fillColor=#8C4FFF;strokeColor=none;dashed=0;verticalLabelPosition=bottom;verticalAlign=top;align=center;html=1;fontSize=12;fontStyle=0;aspect=fixed;pointerEvents=1;shape=mxgraph.aws4.internet_gateway;" parent="A7Okcxwv-YpMzJRRFR9Q-69" vertex="1">
          <mxGeometry x="400" y="960" width="78" height="78" as="geometry" />
        </mxCell>
        <mxCell id="A7Okcxwv-YpMzJRRFR9Q-42" value="" style="sketch=0;outlineConnect=0;fontColor=#232F3E;gradientColor=none;fillColor=#8C4FFF;strokeColor=none;dashed=0;verticalLabelPosition=bottom;verticalAlign=top;align=center;html=1;fontSize=12;fontStyle=0;aspect=fixed;pointerEvents=1;shape=mxgraph.aws4.nat_gateway;" parent="A7Okcxwv-YpMzJRRFR9Q-69" vertex="1">
          <mxGeometry x="602" y="800" width="78" height="78" as="geometry" />
        </mxCell>
        <mxCell id="A7Okcxwv-YpMzJRRFR9Q-34" value="" style="sketch=0;points=[[0,0,0],[0.25,0,0],[0.5,0,0],[0.75,0,0],[1,0,0],[0,1,0],[0.25,1,0],[0.5,1,0],[0.75,1,0],[1,1,0],[0,0.25,0],[0,0.5,0],[0,0.75,0],[1,0.25,0],[1,0.5,0],[1,0.75,0]];outlineConnect=0;fontColor=#232F3E;fillColor=#ED7100;strokeColor=#ffffff;dashed=0;verticalLabelPosition=bottom;verticalAlign=top;align=center;html=1;fontSize=12;fontStyle=0;aspect=fixed;shape=mxgraph.aws4.resourceIcon;resIcon=mxgraph.aws4.ec2;" parent="A7Okcxwv-YpMzJRRFR9Q-69" vertex="1">
          <mxGeometry x="840" y="800" width="78" height="78" as="geometry" />
        </mxCell>
        <mxCell id="A7Okcxwv-YpMzJRRFR9Q-72" value="" style="sketch=0;points=[[0,0,0],[0.25,0,0],[0.5,0,0],[0.75,0,0],[1,0,0],[0,1,0],[0.25,1,0],[0.5,1,0],[0.75,1,0],[1,1,0],[0,0.25,0],[0,0.5,0],[0,0.75,0],[1,0.25,0],[1,0.5,0],[1,0.75,0]];outlineConnect=0;fontColor=#232F3E;fillColor=#ED7100;strokeColor=#ffffff;dashed=0;verticalLabelPosition=bottom;verticalAlign=top;align=center;html=1;fontSize=12;fontStyle=0;aspect=fixed;shape=mxgraph.aws4.resourceIcon;resIcon=mxgraph.aws4.ec2;" parent="A7Okcxwv-YpMzJRRFR9Q-69" vertex="1">
          <mxGeometry x="1120" y="800" width="78" height="78" as="geometry" />
        </mxCell>
        <mxCell id="A7Okcxwv-YpMzJRRFR9Q-60" value="&lt;h2&gt;&lt;font style=&quot;font-size: 14px;&quot;&gt;Auto-scaling group&lt;/font&gt;&lt;/h2&gt;" style="text;strokeColor=none;align=center;fillColor=none;html=1;verticalAlign=middle;whiteSpace=wrap;rounded=0;" parent="A7Okcxwv-YpMzJRRFR9Q-69" vertex="1">
          <mxGeometry x="830" y="1040" width="100" height="30" as="geometry" />
        </mxCell>
        <mxCell id="A7Okcxwv-YpMzJRRFR9Q-31" value="" style="sketch=0;points=[[0,0,0],[0.25,0,0],[0.5,0,0],[0.75,0,0],[1,0,0],[0,1,0],[0.25,1,0],[0.5,1,0],[0.75,1,0],[1,1,0],[0,0.25,0],[0,0.5,0],[0,0.75,0],[1,0.25,0],[1,0.5,0],[1,0.75,0]];outlineConnect=0;fontColor=#232F3E;fillColor=#8C4FFF;strokeColor=#ffffff;dashed=0;verticalLabelPosition=bottom;verticalAlign=top;align=center;html=1;fontSize=12;fontStyle=0;aspect=fixed;shape=mxgraph.aws4.resourceIcon;resIcon=mxgraph.aws4.elastic_load_balancing;" parent="A7Okcxwv-YpMzJRRFR9Q-69" vertex="1">
          <mxGeometry x="960" y="960" width="78" height="78" as="geometry" />
        </mxCell>
        <mxCell id="A7Okcxwv-YpMzJRRFR9Q-57" value="&lt;h2&gt;&lt;font style=&quot;font-size: 14px;&quot;&gt;Elastic Loadbalancer&lt;/font&gt;&lt;/h2&gt;" style="text;strokeColor=none;align=center;fillColor=none;html=1;verticalAlign=middle;whiteSpace=wrap;rounded=0;" parent="A7Okcxwv-YpMzJRRFR9Q-69" vertex="1">
          <mxGeometry x="967.5" y="1040" width="63" height="30" as="geometry" />
        </mxCell>
        <mxCell id="A7Okcxwv-YpMzJRRFR9Q-56" value="&lt;h2&gt;&lt;font style=&quot;font-size: 14px;&quot;&gt;Elastic Loadbalancer&lt;/font&gt;&lt;/h2&gt;" style="text;strokeColor=none;align=center;fillColor=none;html=1;verticalAlign=middle;whiteSpace=wrap;rounded=0;" parent="A7Okcxwv-YpMzJRRFR9Q-69" vertex="1">
          <mxGeometry x="690" y="1040" width="63" height="30" as="geometry" />
        </mxCell>
        <mxCell id="A7Okcxwv-YpMzJRRFR9Q-30" value="" style="sketch=0;points=[[0,0,0],[0.25,0,0],[0.5,0,0],[0.75,0,0],[1,0,0],[0,1,0],[0.25,1,0],[0.5,1,0],[0.75,1,0],[1,1,0],[0,0.25,0],[0,0.5,0],[0,0.75,0],[1,0.25,0],[1,0.5,0],[1,0.75,0]];outlineConnect=0;fontColor=#232F3E;fillColor=#8C4FFF;strokeColor=#ffffff;dashed=0;verticalLabelPosition=bottom;verticalAlign=top;align=center;html=1;fontSize=12;fontStyle=0;aspect=fixed;shape=mxgraph.aws4.resourceIcon;resIcon=mxgraph.aws4.elastic_load_balancing;" parent="A7Okcxwv-YpMzJRRFR9Q-69" vertex="1">
          <mxGeometry x="680" y="960" width="78" height="78" as="geometry" />
        </mxCell>
        <mxCell id="A7Okcxwv-YpMzJRRFR9Q-61" value="&lt;h2&gt;&lt;font style=&quot;font-size: 14px;&quot;&gt;Auto-scaling group&lt;/font&gt;&lt;/h2&gt;" style="text;strokeColor=none;align=center;fillColor=none;html=1;verticalAlign=middle;whiteSpace=wrap;rounded=0;" parent="A7Okcxwv-YpMzJRRFR9Q-69" vertex="1">
          <mxGeometry x="1110" y="1039" width="100" height="30" as="geometry" />
        </mxCell>
        <mxCell id="A7Okcxwv-YpMzJRRFR9Q-32" value="" style="sketch=0;points=[[0,0,0],[0.25,0,0],[0.5,0,0],[0.75,0,0],[1,0,0],[0,1,0],[0.25,1,0],[0.5,1,0],[0.75,1,0],[1,1,0],[0,0.25,0],[0,0.5,0],[0,0.75,0],[1,0.25,0],[1,0.5,0],[1,0.75,0]];outlineConnect=0;fontColor=#232F3E;fillColor=#ED7100;strokeColor=#ffffff;dashed=0;verticalLabelPosition=bottom;verticalAlign=top;align=center;html=1;fontSize=12;fontStyle=0;aspect=fixed;shape=mxgraph.aws4.resourceIcon;resIcon=mxgraph.aws4.auto_scaling2;" parent="A7Okcxwv-YpMzJRRFR9Q-69" vertex="1">
          <mxGeometry x="840" y="960" width="78" height="78" as="geometry" />
        </mxCell>
        <mxCell id="A7Okcxwv-YpMzJRRFR9Q-55" value="&lt;h2&gt;&lt;font style=&quot;font-size: 14px;&quot;&gt;Internet gateway&lt;/font&gt;&lt;/h2&gt;" style="text;strokeColor=none;align=center;fillColor=none;html=1;verticalAlign=middle;whiteSpace=wrap;rounded=0;" parent="A7Okcxwv-YpMzJRRFR9Q-69" vertex="1">
          <mxGeometry x="410" y="1040" width="63" height="30" as="geometry" />
        </mxCell>
        <mxCell id="A7Okcxwv-YpMzJRRFR9Q-33" value="" style="sketch=0;points=[[0,0,0],[0.25,0,0],[0.5,0,0],[0.75,0,0],[1,0,0],[0,1,0],[0.25,1,0],[0.5,1,0],[0.75,1,0],[1,1,0],[0,0.25,0],[0,0.5,0],[0,0.75,0],[1,0.25,0],[1,0.5,0],[1,0.75,0]];outlineConnect=0;fontColor=#232F3E;fillColor=#ED7100;strokeColor=#ffffff;dashed=0;verticalLabelPosition=bottom;verticalAlign=top;align=center;html=1;fontSize=12;fontStyle=0;aspect=fixed;shape=mxgraph.aws4.resourceIcon;resIcon=mxgraph.aws4.auto_scaling2;" parent="A7Okcxwv-YpMzJRRFR9Q-69" vertex="1">
          <mxGeometry x="1120" y="960" width="78" height="78" as="geometry" />
        </mxCell>
        <mxCell id="A7Okcxwv-YpMzJRRFR9Q-73" value="" style="sketch=0;outlineConnect=0;fontColor=#232F3E;gradientColor=none;fillColor=#C925D1;strokeColor=none;dashed=0;verticalLabelPosition=bottom;verticalAlign=top;align=center;html=1;fontSize=12;fontStyle=0;aspect=fixed;pointerEvents=1;shape=mxgraph.aws4.elasticache_for_redis;" parent="A7Okcxwv-YpMzJRRFR9Q-69" vertex="1">
          <mxGeometry x="1350" y="800" width="78" height="69" as="geometry" />
        </mxCell>
        <mxCell id="A7Okcxwv-YpMzJRRFR9Q-74" value="" style="sketch=0;outlineConnect=0;fontColor=#232F3E;gradientColor=none;fillColor=#C925D1;strokeColor=none;dashed=0;verticalLabelPosition=bottom;verticalAlign=top;align=center;html=1;fontSize=12;fontStyle=0;aspect=fixed;pointerEvents=1;shape=mxgraph.aws4.rds_instance_alt;" parent="A7Okcxwv-YpMzJRRFR9Q-69" vertex="1">
          <mxGeometry x="1500" y="800" width="78" height="78" as="geometry" />
        </mxCell>
        <mxCell id="A7Okcxwv-YpMzJRRFR9Q-77" value="&lt;h2&gt;&lt;font style=&quot;font-size: 14px;&quot;&gt;Nat gateway&lt;/font&gt;&lt;/h2&gt;" style="text;strokeColor=none;align=center;fillColor=none;html=1;verticalAlign=middle;whiteSpace=wrap;rounded=0;" parent="A7Okcxwv-YpMzJRRFR9Q-69" vertex="1">
          <mxGeometry x="595.75" y="878" width="90.5" height="30" as="geometry" />
        </mxCell>
        <mxCell id="A7Okcxwv-YpMzJRRFR9Q-78" value="&lt;h2&gt;&lt;font style=&quot;font-size: 14px;&quot;&gt;EC2&lt;/font&gt;&lt;/h2&gt;" style="text;strokeColor=none;align=center;fillColor=none;html=1;verticalAlign=middle;whiteSpace=wrap;rounded=0;" parent="A7Okcxwv-YpMzJRRFR9Q-69" vertex="1">
          <mxGeometry x="834.75" y="878" width="90.5" height="30" as="geometry" />
        </mxCell>
        <mxCell id="A7Okcxwv-YpMzJRRFR9Q-79" value="&lt;h2&gt;&lt;font style=&quot;font-size: 14px;&quot;&gt;EC2&lt;/font&gt;&lt;/h2&gt;" style="text;strokeColor=none;align=center;fillColor=none;html=1;verticalAlign=middle;whiteSpace=wrap;rounded=0;" parent="A7Okcxwv-YpMzJRRFR9Q-69" vertex="1">
          <mxGeometry x="1113.75" y="878" width="90.5" height="30" as="geometry" />
        </mxCell>
        <mxCell id="A7Okcxwv-YpMzJRRFR9Q-80" value="&lt;h2&gt;&lt;font style=&quot;font-size: 14px;&quot;&gt;Elasticache for Redis&lt;/font&gt;&lt;/h2&gt;" style="text;strokeColor=none;align=center;fillColor=none;html=1;verticalAlign=middle;whiteSpace=wrap;rounded=0;" parent="A7Okcxwv-YpMzJRRFR9Q-69" vertex="1">
          <mxGeometry x="1343.75" y="878" width="90.5" height="30" as="geometry" />
        </mxCell>
        <mxCell id="A7Okcxwv-YpMzJRRFR9Q-81" value="&lt;h2&gt;&lt;font style=&quot;font-size: 14px;&quot;&gt;Database Primary&lt;/font&gt;&lt;/h2&gt;" style="text;strokeColor=none;align=center;fillColor=none;html=1;verticalAlign=middle;whiteSpace=wrap;rounded=0;" parent="A7Okcxwv-YpMzJRRFR9Q-69" vertex="1">
          <mxGeometry x="1493.75" y="878" width="90.5" height="30" as="geometry" />
        </mxCell>
        <mxCell id="A7Okcxwv-YpMzJRRFR9Q-86" value="" style="sketch=0;outlineConnect=0;fontColor=#232F3E;gradientColor=none;fillColor=#8C4FFF;strokeColor=none;dashed=0;verticalLabelPosition=bottom;verticalAlign=top;align=center;html=1;fontSize=12;fontStyle=0;aspect=fixed;pointerEvents=1;shape=mxgraph.aws4.nat_gateway;" parent="A7Okcxwv-YpMzJRRFR9Q-69" vertex="1">
          <mxGeometry x="600" y="1150" width="78" height="78" as="geometry" />
        </mxCell>
        <mxCell id="A7Okcxwv-YpMzJRRFR9Q-87" value="" style="sketch=0;points=[[0,0,0],[0.25,0,0],[0.5,0,0],[0.75,0,0],[1,0,0],[0,1,0],[0.25,1,0],[0.5,1,0],[0.75,1,0],[1,1,0],[0,0.25,0],[0,0.5,0],[0,0.75,0],[1,0.25,0],[1,0.5,0],[1,0.75,0]];outlineConnect=0;fontColor=#232F3E;fillColor=#ED7100;strokeColor=#ffffff;dashed=0;verticalLabelPosition=bottom;verticalAlign=top;align=center;html=1;fontSize=12;fontStyle=0;aspect=fixed;shape=mxgraph.aws4.resourceIcon;resIcon=mxgraph.aws4.ec2;" parent="A7Okcxwv-YpMzJRRFR9Q-69" vertex="1">
          <mxGeometry x="840" y="1150" width="78" height="78" as="geometry" />
        </mxCell>
        <mxCell id="A7Okcxwv-YpMzJRRFR9Q-88" value="" style="sketch=0;points=[[0,0,0],[0.25,0,0],[0.5,0,0],[0.75,0,0],[1,0,0],[0,1,0],[0.25,1,0],[0.5,1,0],[0.75,1,0],[1,1,0],[0,0.25,0],[0,0.5,0],[0,0.75,0],[1,0.25,0],[1,0.5,0],[1,0.75,0]];outlineConnect=0;fontColor=#232F3E;fillColor=#ED7100;strokeColor=#ffffff;dashed=0;verticalLabelPosition=bottom;verticalAlign=top;align=center;html=1;fontSize=12;fontStyle=0;aspect=fixed;shape=mxgraph.aws4.resourceIcon;resIcon=mxgraph.aws4.ec2;" parent="A7Okcxwv-YpMzJRRFR9Q-69" vertex="1">
          <mxGeometry x="1120" y="1150" width="78" height="78" as="geometry" />
        </mxCell>
        <mxCell id="A7Okcxwv-YpMzJRRFR9Q-89" value="" style="sketch=0;outlineConnect=0;fontColor=#232F3E;gradientColor=none;fillColor=#C925D1;strokeColor=none;dashed=0;verticalLabelPosition=bottom;verticalAlign=top;align=center;html=1;fontSize=12;fontStyle=0;aspect=fixed;pointerEvents=1;shape=mxgraph.aws4.elasticache_for_redis;" parent="A7Okcxwv-YpMzJRRFR9Q-69" vertex="1">
          <mxGeometry x="1350" y="1150" width="78" height="69" as="geometry" />
        </mxCell>
        <mxCell id="A7Okcxwv-YpMzJRRFR9Q-90" value="" style="sketch=0;outlineConnect=0;fontColor=#232F3E;gradientColor=none;fillColor=#C925D1;strokeColor=none;dashed=0;verticalLabelPosition=bottom;verticalAlign=top;align=center;html=1;fontSize=12;fontStyle=0;aspect=fixed;pointerEvents=1;shape=mxgraph.aws4.rds_instance_alt;" parent="A7Okcxwv-YpMzJRRFR9Q-69" vertex="1">
          <mxGeometry x="1500" y="1150" width="78" height="78" as="geometry" />
        </mxCell>
        <mxCell id="A7Okcxwv-YpMzJRRFR9Q-91" value="&lt;h2&gt;&lt;font style=&quot;font-size: 14px;&quot;&gt;Nat gateway&lt;/font&gt;&lt;/h2&gt;" style="text;strokeColor=none;align=center;fillColor=none;html=1;verticalAlign=middle;whiteSpace=wrap;rounded=0;" parent="A7Okcxwv-YpMzJRRFR9Q-69" vertex="1">
          <mxGeometry x="600" y="1228" width="90.5" height="30" as="geometry" />
        </mxCell>
        <mxCell id="A7Okcxwv-YpMzJRRFR9Q-92" value="&lt;h2&gt;&lt;font style=&quot;font-size: 14px;&quot;&gt;EC2&lt;/font&gt;&lt;/h2&gt;" style="text;strokeColor=none;align=center;fillColor=none;html=1;verticalAlign=middle;whiteSpace=wrap;rounded=0;" parent="A7Okcxwv-YpMzJRRFR9Q-69" vertex="1">
          <mxGeometry x="830" y="1228" width="90.5" height="30" as="geometry" />
        </mxCell>
        <mxCell id="A7Okcxwv-YpMzJRRFR9Q-93" value="&lt;h2&gt;&lt;font style=&quot;font-size: 14px;&quot;&gt;EC2&lt;/font&gt;&lt;/h2&gt;" style="text;strokeColor=none;align=center;fillColor=none;html=1;verticalAlign=middle;whiteSpace=wrap;rounded=0;" parent="A7Okcxwv-YpMzJRRFR9Q-69" vertex="1">
          <mxGeometry x="1110" y="1228" width="90.5" height="30" as="geometry" />
        </mxCell>
        <mxCell id="A7Okcxwv-YpMzJRRFR9Q-94" value="&lt;h2&gt;&lt;font style=&quot;font-size: 14px;&quot;&gt;Elasticache for Redis&lt;/font&gt;&lt;/h2&gt;" style="text;strokeColor=none;align=center;fillColor=none;html=1;verticalAlign=middle;whiteSpace=wrap;rounded=0;" parent="A7Okcxwv-YpMzJRRFR9Q-69" vertex="1">
          <mxGeometry x="1350" y="1228" width="90.5" height="30" as="geometry" />
        </mxCell>
        <mxCell id="A7Okcxwv-YpMzJRRFR9Q-95" value="&lt;h2&gt;&lt;font style=&quot;font-size: 14px;&quot;&gt;Database Standby&lt;/font&gt;&lt;/h2&gt;" style="text;strokeColor=none;align=center;fillColor=none;html=1;verticalAlign=middle;whiteSpace=wrap;rounded=0;" parent="A7Okcxwv-YpMzJRRFR9Q-69" vertex="1">
          <mxGeometry x="1490" y="1228" width="90.5" height="30" as="geometry" />
        </mxCell>
        <mxCell id="A7Okcxwv-YpMzJRRFR9Q-97" value="Nuolet" parent="0" />
        <mxCell id="A7Okcxwv-YpMzJRRFR9Q-100" value="" style="edgeStyle=orthogonalEdgeStyle;html=1;endArrow=block;elbow=vertical;startArrow=block;startFill=1;endFill=1;strokeColor=#545B64;rounded=0;exitX=0.5;exitY=1;exitDx=0;exitDy=0;" parent="A7Okcxwv-YpMzJRRFR9Q-97" source="A7Okcxwv-YpMzJRRFR9Q-54" target="A7Okcxwv-YpMzJRRFR9Q-28" edge="1">
          <mxGeometry width="100" relative="1" as="geometry">
            <mxPoint x="540" y="940" as="sourcePoint" />
            <mxPoint x="640" y="940" as="targetPoint" />
          </mxGeometry>
        </mxCell>
        <mxCell id="A7Okcxwv-YpMzJRRFR9Q-101" value="" style="edgeStyle=orthogonalEdgeStyle;html=1;endArrow=block;elbow=vertical;startArrow=block;startFill=1;endFill=1;strokeColor=#545B64;rounded=0;" parent="A7Okcxwv-YpMzJRRFR9Q-97" source="A7Okcxwv-YpMzJRRFR9Q-28" target="A7Okcxwv-YpMzJRRFR9Q-29" edge="1">
          <mxGeometry width="100" relative="1" as="geometry">
            <mxPoint x="540" y="940" as="sourcePoint" />
            <mxPoint x="450" y="1000" as="targetPoint" />
          </mxGeometry>
        </mxCell>
        <mxCell id="A7Okcxwv-YpMzJRRFR9Q-103" value="" style="edgeStyle=orthogonalEdgeStyle;html=1;endArrow=block;elbow=vertical;startArrow=none;endFill=1;strokeColor=#545B64;rounded=0;" parent="A7Okcxwv-YpMzJRRFR9Q-97" source="A7Okcxwv-YpMzJRRFR9Q-29" target="A7Okcxwv-YpMzJRRFR9Q-30" edge="1">
          <mxGeometry width="100" relative="1" as="geometry">
            <mxPoint x="540" y="940" as="sourcePoint" />
            <mxPoint x="640" y="940" as="targetPoint" />
          </mxGeometry>
        </mxCell>
        <mxCell id="A7Okcxwv-YpMzJRRFR9Q-104" value="" style="edgeStyle=orthogonalEdgeStyle;html=1;endArrow=block;elbow=vertical;startArrow=none;endFill=1;strokeColor=#545B64;rounded=0;" parent="A7Okcxwv-YpMzJRRFR9Q-97" source="A7Okcxwv-YpMzJRRFR9Q-30" target="A7Okcxwv-YpMzJRRFR9Q-32" edge="1">
          <mxGeometry width="100" relative="1" as="geometry">
            <mxPoint x="710" y="940" as="sourcePoint" />
            <mxPoint x="810" y="940" as="targetPoint" />
          </mxGeometry>
        </mxCell>
        <mxCell id="A7Okcxwv-YpMzJRRFR9Q-109" value="" style="edgeStyle=orthogonalEdgeStyle;html=1;endArrow=none;elbow=vertical;startArrow=block;startFill=1;strokeColor=#545B64;rounded=0;" parent="A7Okcxwv-YpMzJRRFR9Q-97" target="A7Okcxwv-YpMzJRRFR9Q-42" edge="1">
          <mxGeometry width="100" relative="1" as="geometry">
            <mxPoint x="490" y="970" as="sourcePoint" />
            <mxPoint x="560" y="840" as="targetPoint" />
            <Array as="points">
              <mxPoint x="530" y="970" />
              <mxPoint x="530" y="839" />
            </Array>
          </mxGeometry>
        </mxCell>
        <mxCell id="A7Okcxwv-YpMzJRRFR9Q-110" value="" style="edgeStyle=orthogonalEdgeStyle;html=1;endArrow=block;elbow=vertical;startArrow=none;endFill=1;strokeColor=#545B64;rounded=0;" parent="A7Okcxwv-YpMzJRRFR9Q-97" source="A7Okcxwv-YpMzJRRFR9Q-32" target="A7Okcxwv-YpMzJRRFR9Q-78" edge="1">
          <mxGeometry width="100" relative="1" as="geometry">
            <mxPoint x="860" y="960" as="sourcePoint" />
            <mxPoint x="960" y="960" as="targetPoint" />
            <Array as="points">
              <mxPoint x="880" y="940" />
              <mxPoint x="880" y="940" />
            </Array>
          </mxGeometry>
        </mxCell>
        <mxCell id="A7Okcxwv-YpMzJRRFR9Q-111" value="" style="edgeStyle=orthogonalEdgeStyle;html=1;endArrow=block;elbow=vertical;startArrow=none;endFill=1;strokeColor=#545B64;rounded=0;" parent="A7Okcxwv-YpMzJRRFR9Q-97" source="A7Okcxwv-YpMzJRRFR9Q-34" target="A7Okcxwv-YpMzJRRFR9Q-31" edge="1">
          <mxGeometry width="100" relative="1" as="geometry">
            <mxPoint x="870" y="910" as="sourcePoint" />
            <mxPoint x="970" y="910" as="targetPoint" />
          </mxGeometry>
        </mxCell>
        <mxCell id="A7Okcxwv-YpMzJRRFR9Q-112" value="" style="edgeStyle=orthogonalEdgeStyle;html=1;endArrow=none;elbow=vertical;startArrow=block;startFill=1;strokeColor=#545B64;rounded=0;entryX=0;entryY=0.5;entryDx=0;entryDy=0;entryPerimeter=0;" parent="A7Okcxwv-YpMzJRRFR9Q-97" source="A7Okcxwv-YpMzJRRFR9Q-42" target="A7Okcxwv-YpMzJRRFR9Q-34" edge="1">
          <mxGeometry width="100" relative="1" as="geometry">
            <mxPoint x="870" y="980" as="sourcePoint" />
            <mxPoint x="970" y="980" as="targetPoint" />
          </mxGeometry>
        </mxCell>
        <mxCell id="A7Okcxwv-YpMzJRRFR9Q-113" value="" style="edgeStyle=orthogonalEdgeStyle;html=1;endArrow=block;elbow=vertical;startArrow=none;endFill=1;strokeColor=#545B64;rounded=0;" parent="A7Okcxwv-YpMzJRRFR9Q-97" source="A7Okcxwv-YpMzJRRFR9Q-31" target="A7Okcxwv-YpMzJRRFR9Q-33" edge="1">
          <mxGeometry width="100" relative="1" as="geometry">
            <mxPoint x="870" y="980" as="sourcePoint" />
            <mxPoint x="970" y="980" as="targetPoint" />
          </mxGeometry>
        </mxCell>
        <mxCell id="A7Okcxwv-YpMzJRRFR9Q-115" value="" style="edgeStyle=orthogonalEdgeStyle;html=1;endArrow=block;elbow=vertical;startArrow=none;endFill=1;strokeColor=#545B64;rounded=0;" parent="A7Okcxwv-YpMzJRRFR9Q-97" source="A7Okcxwv-YpMzJRRFR9Q-33" target="A7Okcxwv-YpMzJRRFR9Q-79" edge="1">
          <mxGeometry width="100" relative="1" as="geometry">
            <mxPoint x="1020" y="940" as="sourcePoint" />
            <mxPoint x="1120" y="940" as="targetPoint" />
          </mxGeometry>
        </mxCell>
        <mxCell id="A7Okcxwv-YpMzJRRFR9Q-116" value="" style="edgeStyle=orthogonalEdgeStyle;html=1;endArrow=block;elbow=vertical;startArrow=block;startFill=1;endFill=1;strokeColor=#545B64;rounded=0;exitX=1;exitY=0.5;exitDx=0;exitDy=0;exitPerimeter=0;" parent="A7Okcxwv-YpMzJRRFR9Q-97" source="A7Okcxwv-YpMzJRRFR9Q-72" target="A7Okcxwv-YpMzJRRFR9Q-73" edge="1">
          <mxGeometry width="100" relative="1" as="geometry">
            <mxPoint x="1130" y="920" as="sourcePoint" />
            <mxPoint x="1230" y="920" as="targetPoint" />
            <Array as="points">
              <mxPoint x="1300" y="839" />
              <mxPoint x="1300" y="839" />
            </Array>
          </mxGeometry>
        </mxCell>
        <mxCell id="A7Okcxwv-YpMzJRRFR9Q-117" value="" style="edgeStyle=orthogonalEdgeStyle;html=1;endArrow=block;elbow=vertical;startArrow=block;startFill=1;endFill=1;strokeColor=#545B64;rounded=0;" parent="A7Okcxwv-YpMzJRRFR9Q-97" source="A7Okcxwv-YpMzJRRFR9Q-73" target="A7Okcxwv-YpMzJRRFR9Q-74" edge="1">
          <mxGeometry width="100" relative="1" as="geometry">
            <mxPoint x="1280" y="910" as="sourcePoint" />
            <mxPoint x="1380" y="910" as="targetPoint" />
            <Array as="points">
              <mxPoint x="1480" y="835" />
              <mxPoint x="1480" y="835" />
            </Array>
          </mxGeometry>
        </mxCell>
        <mxCell id="A7Okcxwv-YpMzJRRFR9Q-118" value="" style="edgeStyle=orthogonalEdgeStyle;html=1;endArrow=block;elbow=vertical;startArrow=block;startFill=1;endFill=1;strokeColor=#545B64;rounded=0;entryX=0.53;entryY=1.005;entryDx=0;entryDy=0;entryPerimeter=0;" parent="A7Okcxwv-YpMzJRRFR9Q-97" source="A7Okcxwv-YpMzJRRFR9Q-90" target="A7Okcxwv-YpMzJRRFR9Q-81" edge="1">
          <mxGeometry width="100" relative="1" as="geometry">
            <mxPoint x="1200" y="1050" as="sourcePoint" />
            <mxPoint x="1300" y="1050" as="targetPoint" />
            <Array as="points">
              <mxPoint x="1540" y="913" />
              <mxPoint x="1542" y="913" />
            </Array>
          </mxGeometry>
        </mxCell>
        <mxCell id="A7Okcxwv-YpMzJRRFR9Q-119" value="" style="edgeStyle=orthogonalEdgeStyle;html=1;endArrow=block;elbow=vertical;startArrow=block;startFill=1;endFill=1;strokeColor=#545B64;rounded=0;" parent="A7Okcxwv-YpMzJRRFR9Q-97" source="A7Okcxwv-YpMzJRRFR9Q-89" target="A7Okcxwv-YpMzJRRFR9Q-90" edge="1">
          <mxGeometry width="100" relative="1" as="geometry">
            <mxPoint x="1330" y="1050" as="sourcePoint" />
            <mxPoint x="1430" y="1050" as="targetPoint" />
            <Array as="points">
              <mxPoint x="1480" y="1184" />
              <mxPoint x="1480" y="1184" />
            </Array>
          </mxGeometry>
        </mxCell>
        <mxCell id="A7Okcxwv-YpMzJRRFR9Q-120" value="" style="edgeStyle=orthogonalEdgeStyle;html=1;endArrow=block;elbow=vertical;startArrow=block;startFill=1;endFill=1;strokeColor=#545B64;rounded=0;" parent="A7Okcxwv-YpMzJRRFR9Q-97" source="A7Okcxwv-YpMzJRRFR9Q-88" target="A7Okcxwv-YpMzJRRFR9Q-89" edge="1">
          <mxGeometry width="100" relative="1" as="geometry">
            <mxPoint x="1330" y="1050" as="sourcePoint" />
            <mxPoint x="1430" y="1050" as="targetPoint" />
            <Array as="points">
              <mxPoint x="1310" y="1189" />
              <mxPoint x="1310" y="1189" />
            </Array>
          </mxGeometry>
        </mxCell>
        <mxCell id="A7Okcxwv-YpMzJRRFR9Q-121" value="" style="edgeStyle=orthogonalEdgeStyle;html=1;endArrow=block;elbow=vertical;startArrow=none;endFill=1;strokeColor=#545B64;rounded=0;" parent="A7Okcxwv-YpMzJRRFR9Q-97" source="A7Okcxwv-YpMzJRRFR9Q-61" target="A7Okcxwv-YpMzJRRFR9Q-88" edge="1">
          <mxGeometry width="100" relative="1" as="geometry">
            <mxPoint x="1110" y="1030" as="sourcePoint" />
            <mxPoint x="1210" y="1030" as="targetPoint" />
            <Array as="points">
              <mxPoint x="1160" y="1130" />
              <mxPoint x="1160" y="1130" />
            </Array>
          </mxGeometry>
        </mxCell>
        <mxCell id="A7Okcxwv-YpMzJRRFR9Q-123" value="" style="edgeStyle=orthogonalEdgeStyle;html=1;endArrow=none;elbow=vertical;startArrow=block;startFill=1;strokeColor=#545B64;rounded=0;" parent="A7Okcxwv-YpMzJRRFR9Q-97" target="A7Okcxwv-YpMzJRRFR9Q-86" edge="1">
          <mxGeometry width="100" relative="1" as="geometry">
            <mxPoint x="490" y="1040" as="sourcePoint" />
            <mxPoint x="480" y="1210" as="targetPoint" />
            <Array as="points">
              <mxPoint x="500" y="1040" />
              <mxPoint x="531" y="1040" />
              <mxPoint x="531" y="1190" />
              <mxPoint x="530" y="1190" />
              <mxPoint x="530" y="1189" />
            </Array>
          </mxGeometry>
        </mxCell>
        <mxCell id="A7Okcxwv-YpMzJRRFR9Q-124" value="" style="edgeStyle=orthogonalEdgeStyle;html=1;endArrow=none;elbow=vertical;startArrow=block;startFill=1;strokeColor=#545B64;rounded=0;" parent="A7Okcxwv-YpMzJRRFR9Q-97" source="A7Okcxwv-YpMzJRRFR9Q-86" target="A7Okcxwv-YpMzJRRFR9Q-87" edge="1">
          <mxGeometry width="100" relative="1" as="geometry">
            <mxPoint x="890" y="1110" as="sourcePoint" />
            <mxPoint x="990" y="1110" as="targetPoint" />
          </mxGeometry>
        </mxCell>
        <mxCell id="A7Okcxwv-YpMzJRRFR9Q-126" value="" style="edgeStyle=orthogonalEdgeStyle;html=1;endArrow=block;elbow=vertical;startArrow=none;endFill=1;strokeColor=#545B64;rounded=0;exitX=0.5;exitY=1;exitDx=0;exitDy=0;" parent="A7Okcxwv-YpMzJRRFR9Q-97" source="A7Okcxwv-YpMzJRRFR9Q-60" target="A7Okcxwv-YpMzJRRFR9Q-87" edge="1">
          <mxGeometry width="100" relative="1" as="geometry">
            <mxPoint x="910" y="1090" as="sourcePoint" />
            <mxPoint x="1010" y="1090" as="targetPoint" />
            <Array as="points">
              <mxPoint x="880" y="1130" />
              <mxPoint x="880" y="1130" />
            </Array>
          </mxGeometry>
        </mxCell>
        <mxCell id="A7Okcxwv-YpMzJRRFR9Q-128" value="" style="edgeStyle=orthogonalEdgeStyle;html=1;endArrow=none;elbow=vertical;startArrow=block;startFill=1;strokeColor=#545B64;rounded=0;entryX=0;entryY=0.5;entryDx=0;entryDy=0;entryPerimeter=0;exitX=0.75;exitY=0;exitDx=0;exitDy=0;exitPerimeter=0;" parent="A7Okcxwv-YpMzJRRFR9Q-97" source="A7Okcxwv-YpMzJRRFR9Q-31" target="A7Okcxwv-YpMzJRRFR9Q-72" edge="1">
          <mxGeometry width="100" relative="1" as="geometry">
            <mxPoint x="990" y="940" as="sourcePoint" />
            <mxPoint x="1090" y="940" as="targetPoint" />
          </mxGeometry>
        </mxCell>
        <mxCell id="A7Okcxwv-YpMzJRRFR9Q-129" value="" style="edgeStyle=orthogonalEdgeStyle;html=1;endArrow=none;elbow=vertical;startArrow=block;startFill=1;strokeColor=#545B64;rounded=0;" parent="A7Okcxwv-YpMzJRRFR9Q-97" source="A7Okcxwv-YpMzJRRFR9Q-32" edge="1">
          <mxGeometry width="100" relative="1" as="geometry">
            <mxPoint x="1040" y="1080" as="sourcePoint" />
            <mxPoint x="960" y="1000" as="targetPoint" />
            <Array as="points">
              <mxPoint x="960" y="999" />
            </Array>
          </mxGeometry>
        </mxCell>
        <mxCell id="A7Okcxwv-YpMzJRRFR9Q-130" value="" style="edgeStyle=orthogonalEdgeStyle;html=1;endArrow=none;elbow=vertical;startArrow=block;startFill=1;strokeColor=#545B64;rounded=0;" parent="A7Okcxwv-YpMzJRRFR9Q-97" source="A7Okcxwv-YpMzJRRFR9Q-57" target="A7Okcxwv-YpMzJRRFR9Q-88" edge="1">
          <mxGeometry width="100" relative="1" as="geometry">
            <mxPoint x="1023.0029999999999" y="1090" as="sourcePoint" />
            <mxPoint x="1120" y="1210.3199999999997" as="targetPoint" />
            <Array as="points">
              <mxPoint x="1020" y="1190" />
            </Array>
          </mxGeometry>
        </mxCell>
        <mxCell id="A7Okcxwv-YpMzJRRFR9Q-131" value="" style="edgeStyle=orthogonalEdgeStyle;html=1;endArrow=block;elbow=vertical;startArrow=none;endFill=1;strokeColor=#545B64;rounded=0;" parent="A7Okcxwv-YpMzJRRFR9Q-97" source="A7Okcxwv-YpMzJRRFR9Q-87" target="A7Okcxwv-YpMzJRRFR9Q-57" edge="1">
          <mxGeometry width="100" relative="1" as="geometry">
            <mxPoint x="920" y="1190" as="sourcePoint" />
            <mxPoint x="1020" y="1190" as="targetPoint" />
          </mxGeometry>
        </mxCell>
        <mxCell id="A7Okcxwv-YpMzJRRFR9Q-133" value="" style="edgeStyle=orthogonalEdgeStyle;html=1;endArrow=block;elbow=vertical;startArrow=none;endFill=1;strokeColor=#545B64;rounded=0;" parent="A7Okcxwv-YpMzJRRFR9Q-97" edge="1">
          <mxGeometry width="100" relative="1" as="geometry">
            <mxPoint x="240" y="430" as="sourcePoint" />
            <mxPoint x="320" y="430" as="targetPoint" />
          </mxGeometry>
        </mxCell>
        <mxCell id="A7Okcxwv-YpMzJRRFR9Q-134" value="" style="edgeStyle=orthogonalEdgeStyle;html=1;endArrow=none;elbow=vertical;startArrow=block;startFill=1;strokeColor=#545B64;rounded=0;" parent="A7Okcxwv-YpMzJRRFR9Q-97" edge="1">
          <mxGeometry width="100" relative="1" as="geometry">
            <mxPoint x="359" y="500" as="sourcePoint" />
            <mxPoint x="469" y="500" as="targetPoint" />
          </mxGeometry>
        </mxCell>
      </root>
    </mxGraphModel>
  </diagram>
</mxfile>
